PathFileType	4	(X/Y/Z)	Walk7.trc
DataRate	CameraRate	NumFrames	NumMarkers	Units	OrigDataRate	OrigDataStartFrame	OrigNumFrames
200.000000	200.000000	4	55	mm	200.000000	554	591
Frame#	Times		RFA1		RASI		RUA1		RACR1		RBHD		C7		LFA1		RTH2		RCAR		RTH3		RBack		RElbow		RTB3		RTB1		LElbowM		RMT1		RMT5		RLFC		LTH2		RTB2		RTH4		LTH3		LACR1		RTB4		LElbow		LPSI		RMMAL		LWRU		CLAV		LTH4		RWRR		RPSI		LBHD		LTB1		T10		LLFC		RToe		LFHD		RWRU		LTB3		RTH1		LTB2		LTB4		LMT1		LTH1		LCAL		LMT5		LWRR		LLMAL		RElbowM		RLMAL		LToe		RCAL		LUA1		LCAR
			X1	Y1	Z1	X2	Y2	Z2	X3	Y3	Z3	X4	Y4	Z4	X5	Y5	Z5	X6	Y6	Z6	X7	Y7	Z7	X8	Y8	Z8	X9	Y9	Z9	X10	Y10	Z10	X11	Y11	Z11	X12	Y12	Z12	X13	Y13	Z13	X14	Y14	Z14	X15	Y15	Z15	X16	Y16	Z16	X17	Y17	Z17	X18	Y18	Z18	X19	Y19	Z19	X20	Y20	Z20	X21	Y21	Z21	X22	Y22	Z22	X23	Y23	Z23	X24	Y24	Z24	X25	Y25	Z25	X26	Y26	Z26	X27	Y27	Z27	X28	Y28	Z28	X29	Y29	Z29	X30	Y30	Z30	X31	Y31	Z31	X32	Y32	Z32	X33	Y33	Z33	X34	Y34	Z34	X35	Y35	Z35	X36	Y36	Z36	X37	Y37	Z37	X38	Y38	Z38	X39	Y39	Z39	X40	Y40	Z40	X41	Y41	Z41	X42	Y42	Z42	X43	Y43	Z43	X44	Y44	Z44	X45	Y45	Z45	X46	Y46	Z46	X47	Y47	Z47	X48	Y48	Z48	X49	Y49	Z49	X50	Y50	Z50	X51	Y51	Z51	X52	Y52	Z52	X53	Y53	Z53	X54	Y54	Z54	X55	Y55	Z55

554	2.77	1210.8	954.08	605.76	1206.6	958.24	444.09	1170.4	1212.7	551.81	1198.4	1400.6	465.78	1164	1588	399.68	1128.8	1454.6	326.43	1130.5	1012.9	-4.0196	1218.9	661.56	449.82	1291.6	787.99	602.64	1153.5	561.34	461.1	1059.9	1356	421.21	1136.9	1085	588.03	1138.9	178.02	354.81	1174.8	365.12	360.73	1023.5	1145	109.89	1218.8	37.522	310.18	1192	30.612	400.55	1152.1	458.74	445.57	1310.9	704.13	128.36	1149.1	270.26	431.79	1151.6	654.94	479.09	1285.6	590.98	115.89	1159.7	1452.4	148.09	1160.4	273.6	359.58	1041.1	1147	28.906	1031.5	974.66	235.39	1094.3	95.571	306.38	1117.7	894.25	-0.024026	1260.9	1371.6	301.89	1244.5	670.74	104.79	1299	845.47	558.6	1027.2	980.04	339.57	1167	1597.1	261.62	1329.1	386.59	192.91	1026.2	1147.7	295.96	1317	487.89	132.37	1271.8	27.118	329.74	1327.1	1611.3	304.95	1234.3	826.03	597.8	1216.8	239.27	208.54	1150.1	749.38	491.32	1242.9	328.38	136.54	1271.1	313.95	201.36	1217.3	64.79	252.66	1202.8	759.38	103.38	1035.6	147	239.09	1192.1	70.763	174.07	1193.8	913.14	32.914	1094.8	167.33	188.55	1111.8	1054.3	496.97	1070.1	79.559	392.72	1257	62.774	229.92	1016.6	33.759	352.97	1091	1269.3	47.488	1191.3	857.25	-10.002
555	2.775	1221.4	955.26	606.49	1212.1	957.77	444.74	1177.5	1213	552.42	1204.8	1400.7	465.87	1169.7	1588.1	399.43	1134.7	1454.4	326.38	1133.8	1012.3	-3.5926	1222.5	660.9	449.89	1305	790.87	603.03	1156.2	561.82	462.21	1066	1355.9	421.6	1145.2	1085.2	589.16	1139.3	177.89	354.89	1175.9	364.91	360.95	1028.3	1144.8	110.74	1218.8	37.494	310.21	1191.8	30.068	400.21	1153.9	458.57	445.95	1317.9	705.28	128.57	1150.3	270.03	431.97	1155.2	654.48	478.95	1293.7	592.12	115.97	1165.2	1452	148.1	1161.1	273.43	359.72	1044.8	1146.7	29.59	1037.6	974.45	235.31	1095.1	95.867	306.29	1120.6	893.82	0.50427	1267	1371.6	301.82	1252	671.48	104.74	1311.4	848.53	559.02	1033.1	980	339.93	1172.9	1596.8	261.15	1340.4	388.05	193.26	1032.3	1147.5	296.15	1323.6	488.52	133.52	1271.8	26.937	329.41	1331.2	1611.5	305.81	1246.9	827.65	598.02	1232.8	237.71	209.26	1154.5	749.48	491.62	1255.9	327.48	137.2	1284.5	313.87	201.96	1238.4	63.271	253.32	1209.6	759.73	103.35	1054.3	140.17	240.6	1212.5	68.515	174.86	1197.6	912.63	32.615	1112.4	162.5	189.75	1120.3	1054	498.22	1070.1	79.633	392.69	1278.3	61.893	230.05	1016.6	33.962	352.95	1095.6	1268.9	47.912	1194.5	856.54	-9.9643
556	2.78	1232.1	956.61	607.16	1217.9	957.52	445.15	1184.6	1213.2	552.96	1210.9	1400.7	465.73	1175.6	1588.3	399.02	1140.7	1454.1	326.46	1137.2	1011.7	-3.2397	1226.3	660.26	449.91	1318.3	793.66	603.39	1158.8	562.37	464.03	1072.2	1355.7	421.87	1153.8	1085.3	590.26	1140	177.8	354.95	1177.1	364.66	361.24	1032.8	1144.4	111.56	1218.9	37.421	310.17	1191.5	28.924	399.13	1155.7	458.44	446.24	1325.1	706.48	128.67	1151.3	269.75	432.22	1159.1	653.97	479.06	1301.7	592.93	116.17	1170.9	1451.4	148.03	1162	273.27	359.87	1048.8	1146.6	30.264	1043.4	974.36	235.25	1094.9	95.866	306.48	1123.5	893.18	1.0696	1272.9	1371.4	301.91	1259.6	672.07	104.71	1323.6	851.64	559.64	1039	979.71	340.07	1178.9	1596.5	260.54	1351.6	389.48	193.52	1038.3	1147.4	296.61	1332.1	489.42	134.08	1272.1	26.896	329.43	1335.3	1611.6	306.69	1259.7	829.65	598.28	1249.2	236.15	209.86	1158.8	749.57	491.63	1268.9	326.41	137.66	1298.1	313.66	202.44	1259.9	61.928	254.33	1216.3	759.96	103.33	1073.3	133.09	242.17	1233.2	66.487	175.42	1201.3	912.03	32.334	1130.2	157.41	191.06	1129	1053.6	499.41	1070.3	79.708	392.71	1299.5	61.351	230.06	1016.6	34.088	352.99	1100.1	1268.5	48.495	1196.6	855.56	-9.646
557	2.785	1242.6	957.78	608.01	1223.9	957.04	445.42	1191.7	1213.5	553.53	1217	1400.8	465.87	1181.5	1588.4	398.85	1146.7	1453.7	326.6	1140.7	1011	-2.8945	1230.2	659.59	449.92	1331.7	796.69	603.62	1161.8	562.47	465.21	1078.4	1355.4	422.11	1162.1	1085.5	591.34	1140.6	177.69	354.98	1178.4	364.32	361.39	1037.4	1143.9	112.56	1218.9	37.322	310.15	1191.2	27.504	397.58	1157.8	458.18	446.52	1332.2	707.39	128.87	1152.2	269.47	432.43	1162.8	653.8	479.23	1309.6	593.76	116.33	1176.6	1450.9	147.97	1163	273.06	359.96	1053	1145.9	31.19	1049.5	974.15	235.13	1095.6	95.407	307.92	1126.5	892.46	1.698	1278.8	1371.1	301.81	1267	672.62	104.64	1336	854.77	559.97	1044.8	979.66	340.06	1184.8	1596.1	260.06	1362.6	390.8	193.87	1044.4	1147.1	296.63	1341.3	490.3	134.31	1272.4	26.876	329.76	1339.4	1611.6	307.58	1272.3	831.67	598.87	1264.6	234.37	210.54	1163.6	749.47	491.6	1281.9	325.35	138.15	1311.5	313.54	202.8	1281.5	60.611	255.29	1223.2	760.26	103.18	1092.7	125.95	243.84	1253.7	64.644	175.98	1204.9	911.33	32.082	1148.3	152.28	192.44	1137.7	1053.2	500.72	1070.4	79.843	392.75	1320.9	60.881	229.78	1016.7	34.243	353.04	1104.8	1268	48.98	1198.9	854.67	-9.4663
